<?xml version="1.0" encoding="iso-8859-1"?>
<!-- Generator: Adobe Illustrator 19.0.0, SVG Export Plug-In . SVG Version: 6.00 Build 0)  -->
<svg version="1.1" id="Layer_1" xmlns="http://www.w3.org/2000/svg" xmlns:xlink="http://www.w3.org/1999/xlink" x="0px" y="0px"
	 viewBox="0 0 475.766 475.766" style="enable-background:new 0 0 475.766 475.766;" xml:space="preserve">
<g>
	<path d="M237.883,99.02c-1.855,0.581-9.339,6.848-16.375,29.443c-5.719,18.365-9.284,41.583-10.309,66.537h53.368
		c-1.025-24.955-4.59-48.172-10.309-66.537C247.222,105.868,239.739,99.601,237.883,99.02z"/>
	<path d="M268.215,87.684c16.231,23.293,24.749,65.194,26.376,107.316h68.4C356.776,142.619,318.433,100.097,268.215,87.684z"/>
	<path d="M221.508,291.537c7.036,22.595,14.52,28.862,16.375,29.443c1.855-0.581,9.339-6.848,16.375-29.443
		c5.719-18.365,9.284-41.583,10.309-66.537h-53.368C212.224,249.955,215.789,273.172,221.508,291.537z"/>
	<path d="M112.776,195h68.4c1.627-42.121,10.145-84.023,26.375-107.316C157.333,100.097,118.99,142.619,112.776,195z"/>
	<path d="M112.776,225c6.215,52.381,44.557,94.903,94.775,107.316c-16.23-23.293-24.749-65.194-26.375-107.316H112.776z"/>
	<path d="M268.215,332.316c50.218-12.412,88.561-54.935,94.775-107.316h-68.4C292.964,267.121,284.446,309.023,268.215,332.316z"/>
	<polygon points="372.286,334.882 346.24,349.766 369.23,390 297.883,390 297.883,370 267.883,370 267.883,420 369.6,420 
		346.24,460.882 372.286,475.766 404.153,420 447.883,420 447.883,390 403.783,390 	"/>
	<path d="M57.883,210c0-99.252,80.748-180,180-180s180,80.748,180,180h30c0-115.794-94.206-210-210-210s-210,94.206-210,210
		s94.206,210,210,210v-30C138.631,390,57.883,309.252,57.883,210z"/>
</g>
<g>
</g>
<g>
</g>
<g>
</g>
<g>
</g>
<g>
</g>
<g>
</g>
<g>
</g>
<g>
</g>
<g>
</g>
<g>
</g>
<g>
</g>
<g>
</g>
<g>
</g>
<g>
</g>
<g>
</g>
</svg>
